<svg width="150" height="146" viewBox="0 0 150 146" fill="none" xmlns="http://www.w3.org/2000/svg">
<path d="M71.7959 7.21729C72.786 4.66283 76.4004 4.66282 77.3904 7.21728L91.3337 43.1927C91.7593 44.291 92.7882 45.0385 93.9642 45.104L132.488 47.2477C135.223 47.4 136.34 50.8375 134.216 52.5684L104.31 76.9463C103.398 77.6905 103.004 78.9 103.306 80.0387L113.171 117.339C113.872 119.988 110.948 122.112 108.645 120.627L76.219 99.7183C75.2291 99.08 73.9573 99.08 72.9674 99.7183L40.5412 120.627C38.2388 122.112 35.3147 119.988 36.0152 117.339L45.8807 80.0387C46.1819 78.9 45.7889 77.6905 44.8759 76.9463L14.9699 52.5684C12.8464 50.8375 13.9633 47.4 16.6987 47.2477L55.2221 45.104C56.3981 45.0385 57.427 44.291 57.8527 43.1927L71.7959 7.21729Z" fill="#FFDC64"/>
<path fill-rule="evenodd" clip-rule="evenodd" d="M83.0932 22C71.4265 40 47.6932 84.2 46.0932 117C46.0924 117.016 46.0916 117.033 46.0908 117.049L40.5412 120.627C38.2388 122.112 35.3147 119.988 36.0152 117.339L45.8807 80.0387C46.1819 78.9 45.7889 77.6905 44.8759 76.9463L14.9699 52.5684C12.8464 50.8375 13.9633 47.4 16.6987 47.2477L55.2221 45.104C56.3981 45.0385 57.427 44.291 57.8527 43.1927L71.7959 7.21729C72.786 4.66283 76.4004 4.66282 77.3904 7.21728L83.1101 21.9747L83.0932 22Z" fill="#FFC850"/>
<path d="M74.5932 146C77.3546 146 79.5932 144 79.5932 141C79.5932 138 75.5932 118 75.5932 118C75.5932 118 75.3932 117 74.5932 117C73.7932 117 73.5932 118 73.5932 118C73.5932 118 69.5932 138 69.5932 141C69.5932 144 71.8317 146 74.5932 146Z" fill="#FFF082"/>
<path d="M1.58995 93.4853C2.46806 96.1034 5.0761 97.5898 7.92038 96.6358C10.7647 95.6818 28.4546 85.5296 28.4546 85.5296C28.4546 85.5296 29.3391 85.022 29.0847 84.2636C28.8303 83.5051 27.8186 83.6335 27.8186 83.6335C27.8186 83.6335 7.58475 86.2009 4.74047 87.1549C1.89619 88.1088 0.711848 90.8672 1.58995 93.4853Z" fill="#FFF082"/>
<path d="M28.7813 7.11081C26.5618 8.75375 25.9524 11.6931 27.7373 14.1044C29.5222 16.5157 44.6364 30.2109 44.6364 30.2109C44.6364 30.2109 45.3921 30.8957 46.0351 30.4197C46.6781 29.9438 46.2439 29.021 46.2439 29.021C46.2439 29.021 37.5597 10.5661 35.7749 8.15479C33.99 5.74353 31.0008 5.46788 28.7813 7.11081Z" fill="#FFF082"/>
<path d="M120.291 7.02675C118.069 5.3879 115.08 5.66904 113.3 8.08358C111.519 10.4981 102.869 28.969 102.869 28.969C102.869 28.969 102.436 29.8925 103.08 30.3673C103.724 30.8421 104.479 30.156 104.479 30.156C104.479 30.156 119.568 16.4329 121.348 14.0184C123.129 11.6039 122.514 8.66561 120.291 7.02675Z" fill="#FFF082"/>
<path d="M147.59 93.5049C148.469 90.8871 147.285 88.1284 144.441 87.1737C141.597 86.2189 121.364 83.646 121.364 83.646C121.364 83.646 120.352 83.5174 120.098 84.2758C119.843 85.0342 120.727 85.5421 120.727 85.5421C120.727 85.5421 138.414 95.699 141.259 96.6537C144.103 97.6085 146.711 96.1228 147.59 93.5049Z" fill="#FFF082"/>
</svg>
